<svg width="96" height="96" viewBox="0 0 480 480" fill="none" xmlns="http://www.w3.org/2000/svg">
<path d="M194.733 220.638H137.807L212.665 19H296.346L308.87 220.638H251.659L250.521 188.698H205.834L194.733 220.638ZM246.251 
137.402V80.9431H243.405L223.481 137.402H246.251ZM128.699 219.347L12 205.152H134.107L128.699 219.347ZM140.368 188.053L23.6699 
173.858H145.776L140.368 188.053ZM152.038 157.081L35.3397 142.886H157.162L152.038 157.081ZM163.424 126.11L47.0096 111.915H168.832L163.424 
126.11ZM175.093 95.1383L58.6795 80.9431H180.217L175.093 95.1383ZM198.149 32.8727L82.0192 19H203.272L198.149 32.8727ZM186.479 63.8442L70.3493 
49.9715H191.602L186.479 63.8442ZM198.149 32.8727L203.272 19H82.0192L198.149 32.8727Z" fill="#E7E7E7"/>
<path d="M280.009 461.908L80.3582 445.531H282.351L280.009 461.908ZM284.986 426.606L160.863 410.229H287.328L284.986 426.606ZM316.31 
286.853L192.186 270.475H317.188L316.31 286.853ZM318.359 251.914L194.528 235.537H319.237L318.359 251.914ZM213.264 340.352H339.729L328.605 
355.637L213.264 340.352ZM187.795 375.29H314.26L303.136 390.576L187.795 375.29ZM238.44 305.414H364.905L353.781 320.699L238.44 305.414ZM438.969 
463H289.084L295.525 417.507L383.641 295.951L383.055 293.767H324.799L328.019 235.537H470L463.56 281.03L376.029 402.586L376.322 404.769H447.166L438.969 
463Z" fill="#FF6464"/>
</svg>
